<?xml version="1.0" encoding="UTF-8" standalone="no"?>
<!-- Created with Inkscape (http://www.inkscape.org/) -->

<svg
   xmlns:dc="http://purl.org/dc/elements/1.1/"
   xmlns:cc="http://creativecommons.org/ns#"
   xmlns:rdf="http://www.w3.org/1999/02/22-rdf-syntax-ns#"
   xmlns:svg="http://www.w3.org/2000/svg"
   xmlns="http://www.w3.org/2000/svg"
   xmlns:sodipodi="http://sodipodi.sourceforge.net/DTD/sodipodi-0.dtd"
   xmlns:inkscape="http://www.inkscape.org/namespaces/inkscape"
   width="744.09448819"
   height="1052.3622047"
   id="svg2"
   version="1.1"
   inkscape:version="0.48.2 r9819"
   sodipodi:docname="New document 1">
  <defs
     id="defs4" />
  <sodipodi:namedview
     id="base"
     pagecolor="#ffffff"
     bordercolor="#666666"
     borderopacity="1.0"
     inkscape:pageopacity="0.0"
     inkscape:pageshadow="2"
     inkscape:zoom="0.35"
     inkscape:cx="375"
     inkscape:cy="520"
     inkscape:document-units="px"
     inkscape:current-layer="layer1"
     showgrid="true"
     inkscape:snap-global="false"
     inkscape:window-width="1600"
     inkscape:window-height="838"
     inkscape:window-x="-8"
     inkscape:window-y="-8"
     inkscape:window-maximized="1">
    <inkscape:grid
       type="xygrid"
       id="grid2989" />
  </sodipodi:namedview>
  <metadata
     id="metadata7">
    <rdf:RDF>
      <cc:Work
         rdf:about="">
        <dc:format>image/svg+xml</dc:format>
        <dc:type
           rdf:resource="http://purl.org/dc/dcmitype/StillImage" />
        <dc:title></dc:title>
      </cc:Work>
    </rdf:RDF>
  </metadata>
  <g
     inkscape:label="Layer 1"
     inkscape:groupmode="layer"
     id="layer1">
    <path
       style="fill:none;stroke:#000000;stroke-width:1px;stroke-linecap:butt;stroke-linejoin:miter;stroke-opacity:1"
       d="m 280,812.36218 160,0"
       id="path2993"
       inkscape:connector-curvature="0" />
    <path
       style="fill:none;stroke:#000000;stroke-width:1px;stroke-linecap:butt;stroke-linejoin:miter;stroke-opacity:1"
       d="m 280,732.36218 160,0"
       id="path2995"
       inkscape:connector-curvature="0" />
    <path
       style="fill:none;stroke:#000000;stroke-width:1px;stroke-linecap:butt;stroke-linejoin:miter;stroke-opacity:1"
       d="m 280,612.36218 160,0"
       id="path2997"
       inkscape:connector-curvature="0" />
    <path
       style="fill:none;stroke:#000000;stroke-width:1px;stroke-linecap:butt;stroke-linejoin:miter;stroke-opacity:1"
       d="m 280,532.36218 160,0"
       id="path2999"
       inkscape:connector-curvature="0" />
    <path
       style="fill:none;stroke:#000000;stroke-width:1px;stroke-linecap:butt;stroke-linejoin:miter;stroke-opacity:1"
       d="m 280,452.36218 160,0"
       id="path3001"
       inkscape:connector-curvature="0" />
    <path
       style="fill:none;stroke:#000000;stroke-width:1px;stroke-linecap:butt;stroke-linejoin:miter;stroke-opacity:1"
       d="m 280,412.36218 160,0"
       id="path3003"
       inkscape:connector-curvature="0" />
    <path
       style="fill:none;stroke:#000000;stroke-width:1px;stroke-linecap:butt;stroke-linejoin:miter;stroke-opacity:1"
       d="m 280,372.36218 160,0"
       id="path3005"
       inkscape:connector-curvature="0" />
    <path
       style="fill:none;stroke:#000000;stroke-width:1px;stroke-linecap:butt;stroke-linejoin:miter;stroke-opacity:1"
       d="m 271.42857,326.6479 165.71429,0"
       id="path3007"
       inkscape:connector-curvature="0" />
    <path
       style="fill:none;stroke:#000000;stroke-width:1px;stroke-linecap:butt;stroke-linejoin:miter;stroke-opacity:1"
       d="m 282.85714,349.50504 154.28572,0"
       id="path3009"
       inkscape:connector-curvature="0" />
    <path
       style="fill:none;stroke:#000000;stroke-width:1px;stroke-linecap:butt;stroke-linejoin:miter;stroke-opacity:1"
       d="m 285.71429,309.50504 154.28571,0"
       id="path3011"
       inkscape:connector-curvature="0" />
    <path
       style="fill:none;stroke:#000000;stroke-width:1px;stroke-linecap:butt;stroke-linejoin:miter;stroke-opacity:1"
       d="m 280,295.21933 160,0"
       id="path3013"
       inkscape:connector-curvature="0" />
    <path
       style="fill:none;stroke:#000000;stroke-width:1px;stroke-linecap:butt;stroke-linejoin:miter;stroke-opacity:1"
       d="m 282.85714,283.79075 c 4.76191,-0.95238 9.52381,-1.90476 14.28572,-2.85714 1.90476,-0.95238 3.64828,-2.34064 5.71428,-2.85714 1.84789,-0.46197 3.80953,0 5.71429,0 1.90476,0 3.80952,0 5.71428,0 8.57143,0 17.14286,0 25.71429,0 28.57143,0 57.14286,0 85.71429,0 1.34713,0 14.15622,0.12949 14.28571,0 0.67344,-0.67344 -0.67344,-2.18371 0,-2.85714 4.7619,-4.76191 2.85714,10.47619 2.85714,-5.71429"
       id="path3021"
       inkscape:connector-curvature="0" />
    <path
       style="fill:none;stroke:#000000;stroke-width:1px;stroke-linecap:butt;stroke-linejoin:miter;stroke-opacity:1"
       d="m 434.28571,255.21933 c -54.28571,0 -108.57142,0 -162.85714,0"
       id="path3023"
       inkscape:connector-curvature="0" />
    <path
       style="fill:none;stroke:#000000;stroke-width:1px;stroke-linecap:butt;stroke-linejoin:miter;stroke-opacity:1"
       d="m 271.42857,238.07647 c 12.38095,0 24.76191,0 37.14286,0 34.28571,0 68.57143,0 102.85714,0 8.57143,0 17.14286,0 25.71429,0 2.85714,0 5.71428,0 8.57143,0 0.95238,0 3.80952,0 2.85714,0 -1.90476,0 -3.80953,0 -5.71429,0"
       id="path3025"
       inkscape:connector-curvature="0" />
    <path
       style="fill:none;stroke:#000000;stroke-width:1px;stroke-linecap:butt;stroke-linejoin:miter;stroke-opacity:1"
       d="m 282.85714,226.6479 c 10.47619,0 20.95238,0 31.42857,0 27.61905,0 55.2381,0 82.85715,0 10.47619,0 20.95238,0 31.42857,0 3.80952,0 7.61905,0 11.42857,0 0.95238,0 1.90476,0 2.85714,0 0.95238,0 2.85715,-0.95238 2.85715,0 0,0.95238 -1.95364,0.30117 -2.85715,0 -2.0203,-0.67344 -3.80952,-1.90477 -5.71428,-2.85715"
       id="path3027"
       inkscape:connector-curvature="0" />
    <path
       style="fill:none;stroke:#000000;stroke-width:1px;stroke-linecap:butt;stroke-linejoin:miter;stroke-opacity:1"
       d="m 282.85714,212.36218 c 41.90476,0 83.80953,0 125.71429,0 7.61905,0 15.23809,0 22.85714,0 1.90476,0 3.80953,0 5.71429,0 0.95238,0 3.53058,0.67344 2.85714,0 -1.50585,-1.50584 -3.80952,-1.90476 -5.71429,-2.85714 -10.30156,-5.15078 -3.73701,-2.06623 -20,-8.57143"
       id="path3029"
       inkscape:connector-curvature="0" />
    <path
       style="fill:none;stroke:#000000;stroke-width:1px;stroke-linecap:butt;stroke-linejoin:miter;stroke-opacity:1"
       d="m 282.85714,195.21933 c 12.38096,0 24.76191,0 37.14286,0 2.85714,0 6.01592,-1.27776 8.57143,0 0.85183,0.42591 -0.67344,2.1837 0,2.85714 0.67343,0.67343 1.90476,0 2.85714,0 7.61905,0 15.2381,0 22.85714,0 5.71429,0 11.42858,0 17.14286,0 0.95238,0 2.18371,-0.67344 2.85714,0 0.67344,0.67343 -0.67343,2.18371 0,2.85714 0.67344,0.67344 1.90477,0 2.85715,0 3.11972,0 12.43798,-0.61591 14.28571,0 2.02031,0.67344 3.69398,2.18371 5.71429,2.85714 1.79329,0.59777 9.12847,0 11.42857,0 7.61905,0 15.23809,0 22.85714,0 3.80953,0 7.61905,0 11.42857,0 0.95238,0 2.85715,-0.95238 2.85715,0 0,0.95238 -1.90477,0 -2.85715,0 -1.90476,0 -3.80952,0 -5.71428,0 -4.76191,0 -9.52381,0 -14.28572,0 -1.90476,0 -3.86639,0.46198 -5.71428,0 -2.06601,-0.5165 -3.64828,-2.34064 -5.71429,-2.85714 -1.89561,-0.4739 -14.71888,0 -17.14286,0 -0.95238,0 -1.95363,0.30117 -2.85714,0 -2.0203,-0.67343 -3.64828,-2.34064 -5.71428,-2.85714 -2.00183,-0.50046 -16.10835,0 -17.14286,0 -13.33333,0 -26.66667,0 -40,0 -7.61905,0 -15.2381,0 -22.85714,0 -1.90477,0 -3.80953,0 -5.71429,0 -0.95238,0 -2.18371,0.67343 -2.85714,0 -0.67344,-0.67344 0.93388,-2.67037 0,-2.85714 -4.66943,-0.93389 -17.65289,3.36717 -14.28572,0 2.10369,-21.33313 13.97662,0.15455 20,-2.85715 1.20468,-0.60234 1.65247,-2.2548 2.85715,-2.85714 0.85183,-0.42592 1.90476,0 2.85714,0 0.95238,0 1.90476,0 2.85714,0 7.61905,0 15.2381,0 22.85714,0 1.90477,0 3.84652,0.37355 5.71429,0 2.95321,-0.59064 5.64966,-2.1267 8.57143,-2.85714 0.92394,-0.23099 1.90476,0 2.85714,0 1.90476,0 3.80953,0 5.71429,0 4.7619,0 9.52381,0 14.28571,0 0.95238,0 1.90476,0 2.85714,0 0.95239,0 2.18371,0.67343 2.85715,0 0.67343,-0.67344 -0.67344,-2.18371 0,-2.85715 0.67343,-0.67343 1.90476,0 2.85714,0 5.71429,0 11.42857,0 17.14286,0 11.42857,0 22.85714,0 34.28571,0 3.80953,0 7.61905,0 11.42857,0 0.95238,0 3.80953,0 2.85715,0 -7.61905,0 -15.2381,0 -22.85715,0 -1.86375,0 -9.17741,0.56279 -11.42857,0 -2.92177,-0.73044 -5.64966,-2.1267 -8.57143,-2.85714 -2.95552,-0.73888 -18.90318,0 -22.85714,0 -14.28571,0 -28.57143,0 -42.85714,0 -6.70051,0 1.34687,0.67344 -5.71429,-2.85714 -0.86952,-0.43476 -7.28469,0 -8.57143,0 -6.66666,0 -13.33333,0 -20,0 -5.71428,0 -11.42857,0 -17.14285,0 -0.95239,0 -2.85715,0.95238 -2.85715,0 0,-0.95238 1.90476,0 2.85715,0 1.90476,0 4.01061,0.85183 5.71428,0 0.85184,-0.42592 -0.85183,-2.43123 0,-2.85714 2.14063,-1.07032 14.1782,0.98821 17.14286,0 2.0203,-0.67344 3.64828,-2.34065 5.71428,-2.85715 1.84789,-0.46197 3.90727,0.60234 5.71429,0 1.27775,-0.42592 1.65247,-2.2548 2.85714,-2.85714 1.6794,-0.8397 11.73867,0.63676 14.28572,0 2.92177,-0.73044 5.64965,-2.1267 8.57143,-2.85714 1.84789,-0.46198 3.80952,0 5.71428,0 5.71429,0 11.42857,0 17.14286,0 15.23809,0 30.47619,0 45.71428,0 7.61905,0 15.2381,0 22.85715,0 0.95238,0 1.90476,0 2.85714,0 0.95238,0 2.85714,-0.95238 2.85714,0 0,0.95238 -1.90476,0 -2.85714,0 -1.90476,0 -3.80952,0 -5.71429,0 -3.31905,0 -11.69558,0.64753 -14.28571,0 -2.066,-0.5165 -3.69398,-2.18371 -5.71429,-2.85715 -1.79329,-0.59776 -9.12847,0 -11.42857,0 -23.80952,0 -47.61904,0 -71.42857,0 -9.52381,0 -19.04762,0 -28.57143,0 -2.85714,0 -5.71428,0 -8.57143,0 -0.95238,0 -3.80952,0 -2.85714,0 21.90476,0 43.80953,0 65.71429,0 6.66666,0 13.33333,0 20,0 1.28673,0 7.7019,0.43477 8.57143,0 1.20467,-0.60233 1.65246,-2.2548 2.85714,-2.85714 0.85183,-0.42592 1.90476,0 2.85714,0 1.90476,0 3.80953,0 5.71429,0 3.80952,0 7.61904,0 11.42857,0 1.90476,0 3.82867,0.26938 5.71428,0 18.88793,-2.69827 13.6449,-2.85714 28.57143,-2.85714 0.95238,0 -1.90476,0 -2.85714,0 -3.80952,0 -7.61905,0 -11.42857,0 -12.38095,0 -24.76191,0 -37.14286,0 -25.71428,0 -51.42857,0 -77.14286,0 -5.71428,0 -11.42857,0 -17.14285,0 -1.90476,0 -3.80953,0 -5.71429,0 -0.95238,0 -2.85714,0.95238 -2.85714,0 0,-0.0901 8.00811,0.11266 8.57143,0 3.85051,-0.7701 7.57806,-2.08704 11.42857,-2.85714 0.93388,-0.18678 1.9332,0.23098 2.85714,0 2.92177,-0.73045 5.60071,-2.36203 8.57143,-2.85715 2.81827,-0.46971 5.71429,0 8.57143,0 3.04885,0 10.66711,0 14.28571,0 18.09524,0 36.19048,0 54.28572,0 4.7619,0 9.52381,0 14.28571,0 1.87745,0 6.95943,0.53733 8.57143,0 2.02031,-0.67343 4.20844,-1.35129 5.71429,-2.85714 0.67343,-0.67344 -1.90477,0 -2.85715,0 -2.85714,0 -5.71428,0 -8.57143,0 -8.57142,0 -17.14285,0 -25.71428,0 -32.04705,0 4.97138,0.78285 -31.42857,-2.85714 -3.79062,-0.37906 -7.61905,0 -11.42857,0 -2.85715,0 -5.7996,0.69296 -8.57143,0 -1.30666,-0.32667 -1.57939,-2.43123 -2.85715,-2.85715 -1.62532,-0.54177 -11.59475,0 -14.28571,0 -5.71429,0 -11.42857,0 -17.14286,0 -1.28673,0 -7.7019,0.43477 -8.57143,0 -7.06115,-3.53057 -1.70751,-2.85714 0,-2.85714 30.47619,0 60.95239,0 91.42858,0 1.90476,0 3.90727,0.60234 5.71428,0 2.02031,-0.67343 3.69398,-2.18371 5.71429,-2.85714 0.90351,-0.30117 1.95363,0.30117 2.85714,0 2.02031,-0.67344 3.69398,-2.18371 5.71429,-2.85714 1.67166,-0.55723 19.68167,0 22.85714,0 1.90476,0 3.80952,0 5.71428,0 0.95239,0 2.85715,-0.95239 2.85715,0 0,0.95238 -1.90476,0 -2.85715,0 -1.90476,0 -3.80952,0 -5.71428,0 -5.71429,0 -11.42857,0 -17.14286,0 -25.71428,0 -51.42857,0 -77.14286,0 -12.38095,0 -24.7619,0 -37.14285,0 -3.80953,0 -7.61905,0 -11.42857,0 -3.78812,0 -6.10275,0 -5.71429,0 6.66667,0 13.33333,0 20,0 2.85714,0 5.743,0.40406 8.57143,0 3.8873,-0.55533 7.53213,-2.37009 11.42857,-2.85715 3.78011,-0.47251 7.69303,0.74711 11.42857,0 47.45428,-9.49085 -9.48712,-2.72633 31.42857,-8.57143 3.70371,-0.5291 11.11111,0.79365 14.28572,0 1.30665,-0.32666 1.57939,-2.43122 2.85714,-2.85714 1.53602,-0.512 9.00957,0 11.42857,0 5.71429,0 11.42857,0 17.14286,0 0.95238,0 2.18371,0.67344 2.85714,0 0.67344,-0.67343 -0.67343,-2.18371 0,-2.85714 0.0919,-0.0919 7.8785,0 8.57143,0 2.85714,0 5.71429,0 8.57143,0 0.95238,0 2.18371,0.67343 2.85714,0 0.67344,-0.67344 -0.67343,-2.18371 0,-2.85714 0.67344,-0.67344 1.90476,0 2.85714,0 0.95239,0 1.90477,0 2.85715,0 0.95238,0 3.80952,0 2.85714,0 -2.85714,0 -5.71429,0 -8.57143,0 -2.85714,0 -5.91864,-1.06112 -8.57143,0 -2.50107,1.00043 -3.30493,4.5096 -5.71428,5.71428 -1.70367,0.85184 -3.8664,-0.46197 -5.71429,0 -2.066,0.5165 -3.69398,2.18371 -5.71428,2.85714 -0.90351,0.30117 -1.90477,0 -2.85715,0 -2.85714,0 -5.71428,0 -8.57143,0 -1.90476,0 -3.86639,-0.46197 -5.71428,0 -2.06601,0.51651 -3.62605,2.4395 -5.71429,2.85715 -4.62319,1.40083 -9.61628,-0.93389 -14.28571,0 -2.95321,0.59064 -5.64966,2.1267 -8.57143,2.85714 -0.92395,0.23099 -1.90476,0 -2.85714,0 -3.80953,0 -7.61905,0 -11.42857,0 -9.52381,0 -19.04762,0 -28.57143,0 -6.66667,0 -13.33334,0 -20,0 -0.95238,0 -2.85715,0.95238 -2.85715,0 0,-0.95238 1.90477,0 2.85715,0 5.71428,0 11.42857,0 17.14285,0 1.10418,0 11.962,0 14.28572,0 2.85714,0 5.743,0.40406 8.57143,0 3.8873,-0.55533 7.65289,-1.77838 11.42857,-2.85714 32.88829,-9.39666 -14.93784,2.48964 17.14286,-2.85715 2.97071,-0.49512 5.61822,-2.2665 8.57142,-2.85714 3.22231,-0.64446 10.54663,0 14.28572,0 8.57143,0 17.14286,0 25.71428,0 3.80953,0 7.61905,0 11.42858,0 0.95238,0 2.85714,-0.95238 2.85714,0 0,0.95238 -1.90476,0 -2.85714,0 -3.80953,0 -7.61905,0 -11.42858,0 -9.52381,0 -19.08673,-0.86224 -28.57142,0 -4.83627,0.43966 -9.44945,2.41748 -14.28572,2.85714 -11.38164,1.0347 -22.8908,-0.87653 -34.28571,0 -6.71452,0.51651 -13.28057,2.40918 -20,2.85715 -12.35353,0.82357 -24.76191,0 -37.14286,0 -2.85714,0 -5.71429,0 -8.57143,0 -0.95238,0 -2.85714,0.95238 -2.85714,0 0,-0.95238 1.90476,0 2.85714,0 5.71429,0 11.42857,0 17.14286,0 5.71428,0 11.42857,0 17.14286,0 1.90476,0 3.82866,0.26937 5.71428,0 4.8074,-0.68677 9.5745,-1.67934 14.28572,-2.85715 2.92177,-0.73044 5.64965,-2.1267 8.57142,-2.85714 0.92395,-0.23099 1.91434,0.13469 2.85715,0 5.73488,-0.81927 11.52271,-1.45211 17.14285,-2.85714 2.06601,-0.5165 3.64829,-2.34064 5.71429,-2.85714 3.89182,-0.97296 13.68632,1.15218 17.14286,0 1.27775,-0.42592 1.57939,-2.43123 2.85714,-2.85715 1.53602,-0.512 9.00957,0 11.42857,0 0.95238,0 1.90476,0 2.85714,0 0.95239,0 2.85715,-0.95238 2.85715,0 0,0.95238 -1.90476,0 -2.85715,0 -3.11111,0 -9.71252,0 -11.42857,0 -12.38095,0 -24.7619,0 -37.14285,0 -3.06525,0 -18.11143,-0.62952 -20,0 -9.84919,3.28306 -2.11647,2.85715 -8.57143,2.85715 -13.00653,0 -0.16341,-1.34687 -8.57143,2.85714 -0.85184,0.42592 -2.85714,0.95238 -2.85714,0 0,-0.95238 1.90476,0 2.85714,0 1.90476,0 3.80952,0 5.71428,0 6.66667,0 13.33334,0 20,0 4.76191,0 9.54745,0.47383 14.28572,0 13.60576,-1.36058 26.39424,-7.21085 40,-8.57143 7.58123,-0.75812 15.23809,0 22.85714,0 1.90476,0 3.80953,0 5.71429,0 0.95238,0 3.80952,0 2.85714,0 -20.95238,0 -41.90476,0 -62.85714,0 -6.66667,0 -13.33334,0 -20,0 -2.85715,0 -5.71429,0 -8.57143,0 -0.95238,0 -2.85714,0.95238 -2.85714,0 0,-0.96348 3.37435,0.58498 5.71428,0 0.38727,-0.0968 16.99555,-5.69792 17.14286,-5.71429 5.67933,-0.63103 11.50632,0.93943 17.14286,0 63.66784,-10.611304 -22.55892,-1.82299 31.42857,-8.571425 2.83508,-0.354384 5.71428,0 8.57143,0 5.71428,0 11.42857,0 17.14285,0 3.80953,0 7.61905,0 11.42857,0 0.95239,0 2.85715,-0.95238 2.85715,0 0,0.952381 -1.90476,0 -2.85715,0 -1.90476,0 -3.80952,0 -5.71428,0 -5.71429,0 -11.42857,0 -17.14286,0 -25.71428,0 -51.42857,0 -77.14286,0 -13.33333,0 -26.66666,0 -40,0 -3.80952,0 -7.61904,0 -11.42857,0 -0.95238,0 -3.80952,0 -2.85714,0 21.90476,0 43.80952,0 65.71429,0 11.42857,0 22.85714,0 34.28571,0 3.80952,0 7.61905,0 11.42857,0 3.78812,0 6.10274,0 5.71429,0 -13.33334,0 -26.66667,0 -40,0 -4.76191,0 -9.61629,0.933887 -14.28572,0 -2.08823,-0.417646 -3.69398,-2.183707 -5.71428,-2.857142 -0.90351,-0.30117 -1.90476,0 -2.85715,0 -1.90476,0 -3.80952,0 -5.71428,0 -2.85714,0 -5.71429,0 -8.57143,0 -0.95238,0 -1.95363,0.301169 -2.85714,0 -9.84918,-3.283061 -2.11647,-2.857143 -8.57143,-2.857143 -1.90476,0 -3.80953,0 -5.71429,0 -0.95238,0 -3.80952,0 -2.85714,0 11.23066,0 23.24626,0.919954 34.28571,0 4.83944,-0.403286 9.49558,-2.058787 14.28572,-2.857143 34.63451,-5.772418 5.29841,0.06398 42.85714,-5.714286 4.79974,-0.738421 9.45921,-2.320864 14.28572,-2.857143 5.67933,-0.631037 11.42857,0 17.14285,0 2.85715,0 5.71429,0 8.57143,0 0.95238,0 2.85714,-0.952381 2.85714,0 0,0.952381 -1.90476,0 -2.85714,0 -1.90476,0 -3.80952,0 -5.71428,0 -11.42858,0 -22.85715,0 -34.28572,0 -19.04762,0 -38.09524,0 -57.14286,0 -6.66666,0 -13.33333,0 -20,0 -1.90476,0 -4.01061,0.851836 -5.71428,0 -0.85184,-0.425917 -0.67344,-2.183707 0,-2.857143 0.67343,-0.673435 1.90476,0 2.85714,0 5.71429,0 11.42857,0 17.14286,0 8.57143,0 17.14286,0 25.71428,0 1.90477,0 3.8664,-0.461972 5.71429,0 2.066,0.516502 3.62605,2.439497 5.71429,2.857143 0.97024,0.194049 12.17622,-0.703162 14.28571,0 2.02031,0.673435 3.64828,2.340642 5.71429,2.857143 1.84789,0.461973 3.80952,0 5.71428,0 1.90476,0 3.80953,0 5.71429,0 3.78811,0 6.10274,0 5.71428,0 -17.14285,0 -34.28571,0 -51.42857,0 -8.57143,0 -17.18539,0.852889 -25.71428,0 -3.90728,-0.390728 -7.54127,-2.301814 -11.42858,-2.857143 -13.41445,-1.91635 -4.54031,3.326731 -20,-2.857143 -8.82644,-3.530577 2.23447,-2.857142 -5.71428,-2.857142 -0.95238,0 -3.80953,0 -2.85714,0 12.38095,0 24.7619,0 37.14285,0 4.76191,0 9.56058,0.590641 14.28572,0 2.98843,-0.373555 5.59,-2.431226 8.57143,-2.857143 3.77123,-0.538748 7.61904,0 11.42857,0 7.61904,0 15.23809,0 22.85714,0 6.66667,0 13.33333,0 20,0 1.90476,0 3.80952,0 5.71429,0 0.95238,0 2.85714,-0.952381 2.85714,0 0,0.952381 -1.90476,0 -2.85714,0 -7.9,0 -4.81513,0 -14.28572,0 -16.19047,0 -32.38095,0 -48.57143,0 -18.09524,0 -36.19047,0 -54.28571,0 -4.76191,0 -9.52381,0 -14.28572,0 -1.90476,0 -3.80952,0 -5.71428,0 -0.95238,0 -2.85714,0.952381 -2.85714,0 0,-0.952381 1.90476,0 2.85714,0 6.66667,0 13.33333,0 20,0 15.23809,0 30.47619,0 45.71428,0 17.14286,0 34.28572,0 51.42858,0 3.80952,0 7.61904,0 11.42857,0 0.95238,0 1.90476,0 2.85714,0 0.95238,0 2.85714,-0.952381 2.85714,0 0,0.952381 -1.90476,0 -2.85714,0 -3.43838,0 -8.21044,0.643627 -11.42857,0 -2.95321,-0.590642 -5.64966,-2.1267 -8.57143,-2.857143 -9.42243,-2.355607 -19.04762,-3.809524 -28.57143,-5.714286 -4.7619,-0.952381 -9.54514,-1.803683 -14.28571,-2.857143 -3.83326,-0.851835 -7.55523,-2.211586 -11.42857,-2.857143 -1.87885,-0.31314 -3.80953,0 -5.71429,0 -3.80952,0 -7.61905,0 -11.42857,0 -1.90476,0 -7.61905,0 -5.71429,0 29.52381,0 59.04762,0 88.57143,0 7.61905,0 15.2381,0 22.85714,0 3.80953,0 7.61905,0 11.42858,0 0.95238,0 2.85714,-0.95238 2.85714,0 0,0.952381 -1.90476,0 -2.85714,0 -5.71429,0 -11.42858,0 -17.14286,0 -5.71429,0 -11.45204,0.517348 -17.14286,0 -8.52551,1.84453 -15.08254,-4.603628 -22.85714,-5.714285 -8.48528,-1.212183 -17.1854,0.852889 -25.71429,0 -4.83211,-0.483211 -9.467,-2.254804 -14.28571,-2.857143 -3.78011,-0.472513 -7.61905,0 -11.42857,0 -1.42907,0 -11.99941,0 -5.71429,0 24.76191,0 49.52381,0 74.28572,0 7.61904,0 15.23809,0 22.85714,0 1.42907,0 11.9994,0 5.71428,0 -9.52381,0 -19.04761,0 -28.57142,0"
       id="path3031"
       inkscape:connector-curvature="0" />
  </g>
</svg>
