<?xml version="1.0" encoding="UTF-8" standalone="no"?>
<!-- Created with Inkscape (http://www.inkscape.org/) -->

<svg
   xmlns:dc="http://purl.org/dc/elements/1.1/"
   xmlns:cc="http://creativecommons.org/ns#"
   xmlns:rdf="http://www.w3.org/1999/02/22-rdf-syntax-ns#"
   xmlns:svg="http://www.w3.org/2000/svg"
   xmlns="http://www.w3.org/2000/svg"
   xmlns:sodipodi="http://sodipodi.sourceforge.net/DTD/sodipodi-0.dtd"
   xmlns:inkscape="http://www.inkscape.org/namespaces/inkscape"
   width="744.09448819"
   height="1052.3622047"
   id="svg2"
   version="1.1"
   inkscape:version="0.48.2 r9819"
   sodipodi:docname="qmTwoL9fig1.svg">
  <defs
     id="defs4">
    <marker
       inkscape:stockid="Arrow1Lend"
       orient="auto"
       refY="0.0"
       refX="0.0"
       id="Arrow1Lend"
       style="overflow:visible;">
      <path
         id="path3763"
         d="M 0.0,0.0 L 5.0,-5.0 L -12.5,0.0 L 5.0,5.0 L 0.0,0.0 z "
         style="fill-rule:evenodd;stroke:#000000;stroke-width:1.0pt;marker-start:none;"
         transform="scale(0.8) rotate(180) translate(12.5,0)" />
    </marker>
  </defs>
  <sodipodi:namedview
     id="base"
     pagecolor="#ffffff"
     bordercolor="#666666"
     borderopacity="1.0"
     inkscape:pageopacity="0.0"
     inkscape:pageshadow="2"
     inkscape:zoom="0.35"
     inkscape:cx="375"
     inkscape:cy="520"
     inkscape:document-units="px"
     inkscape:current-layer="layer1"
     showgrid="true"
     inkscape:window-width="1600"
     inkscape:window-height="838"
     inkscape:window-x="-8"
     inkscape:window-y="-8"
     inkscape:window-maximized="1">
    <inkscape:grid
       type="xygrid"
       id="grid2985" />
  </sodipodi:namedview>
  <metadata
     id="metadata7">
    <rdf:RDF>
      <cc:Work
         rdf:about="">
        <dc:format>image/svg+xml</dc:format>
        <dc:type
           rdf:resource="http://purl.org/dc/dcmitype/StillImage" />
        <dc:title></dc:title>
      </cc:Work>
    </rdf:RDF>
  </metadata>
  <g
     inkscape:label="Layer 1"
     inkscape:groupmode="layer"
     id="layer1">
    <path
       style="fill:none;stroke:#000000;stroke-width:2.5;stroke-linecap:butt;stroke-linejoin:miter;stroke-opacity:1;marker-end:url(#Arrow1Lend);stroke-miterlimit:4;stroke-dasharray:none"
       d="m 80,932.36218 520,0"
       id="path2987"
       inkscape:connector-curvature="0" />
    <path
       style="fill:none;stroke:#000000;stroke-width:1px;stroke-linecap:butt;stroke-linejoin:miter;stroke-opacity:1"
       d="m 80,812.36218 c 2.857143,-3.80952 4.0201,-10.02816 8.571429,-11.42857 2.728831,-0.83964 32.687791,0 42.857141,0 2.85714,0 5.71429,0 8.57143,0 0.95238,0 1.90476,0 2.85714,0 0.95238,0 2.00531,0.42592 2.85715,0 1.20467,-0.60234 1.57939,-2.43122 2.85714,-2.85714 1.69902,-0.56634 13.76798,0 17.14286,0 13.33333,0 26.66666,0 40,0 12.38095,0 24.7619,0 37.14285,0 2.02515,0 16.40414,-0.36936 17.14286,0 9.47595,9.47595 -2.69374,-1.34687 5.71429,2.85714 1.20467,0.60234 1.65246,2.25481 2.85714,2.85714 0.85183,0.42592 2.00531,-0.42591 2.85714,0 1.20468,0.60234 1.65247,2.25481 2.85714,2.85715 1.70368,0.85183 3.90727,-0.60234 5.71429,0 20.69548,6.89849 -4.50459,-0.82373 8.57143,5.71428 0.85183,0.42592 2.00531,-0.42592 2.85714,0 2.40936,1.20468 3.30493,4.50961 5.71429,5.71429 0.85183,0.42592 1.90476,0 2.85714,0 0.95238,0.95238 1.65247,2.2548 2.85714,2.85714 0.85184,0.42592 2.18371,-0.67343 2.85715,0 0.67343,0.67344 -0.67344,2.18371 0,2.85714 1.42857,1.42858 7.14285,-1.42857 8.57142,0 0.67344,0.67344 -0.67343,2.18371 0,2.85715 0.78178,0.78177 9.87861,-0.77499 11.42858,0 1.20467,0.60234 1.65246,2.2548 2.85714,2.85714 0.85183,0.42592 1.90476,0 2.85714,0 0.95238,0 1.90476,0 2.85714,0 5.71429,0 11.42858,0 17.14286,0 1.90476,0 3.8664,-0.46197 5.71429,0 2.066,0.5165 3.64828,2.34064 5.71428,2.85714 3.79107,0.94777 13.77921,-1.12122 17.14286,0 1.27775,0.42592 1.65247,2.25481 2.85714,2.85715 0.86868,0.43433 9.45565,0 11.42857,0 8.57143,0 17.14286,0 25.71429,0 8.57143,0 17.14286,0 25.71429,0 0.95238,0 1.90476,0 2.85714,0 0.95238,0 2.18371,0.67343 2.85714,0 0.67344,-0.67344 0,-1.90477 0,-2.85715 1.90476,-0.95238 3.69398,-2.18371 5.71429,-2.85714 2.29971,-0.76657 9.60279,0.91289 11.42857,0 1.20468,-0.60234 1.65246,-2.2548 2.85714,-2.85714 1.70367,-0.85184 4.36742,1.34687 5.71429,0 0.67343,-0.67344 -0.67344,-2.18371 0,-2.85715 0.67343,-0.67343 2.0053,0.42592 2.85714,0 1.20468,-0.60233 1.65247,-2.2548 2.85714,-2.85714 1.76975,-0.88487 10.5832,0.84538 11.42857,0 0.67344,-0.67343 -0.67343,-2.18371 0,-2.85714 0.67344,-0.67344 1.95364,0.30117 2.85715,0 2.0203,-0.67344 3.64828,-2.34064 5.71428,-2.85714 0.0955,-0.0239 8.55626,0.0152 8.57143,0 0.67344,-0.67344 -0.67343,-2.18371 0,-2.85715 0.58411,-0.5841 7.4386,0.56642 8.57143,0 1.20468,-0.60234 1.65247,-2.2548 2.85714,-2.85714 1.22024,-0.61012 13.15625,0 14.28572,0 0.95238,0 2.1837,0.67343 2.85714,0 0.67344,-0.67344 -0.67344,-2.18371 0,-2.85714 1.34687,-1.34687 4.01061,0.85183 5.71429,0 1.20467,-0.60234 1.65246,-2.25481 2.85714,-2.85715 1.13283,-0.56641 7.98732,0.58411 8.57143,0 0.67343,-0.67343 -0.85184,-2.43122 0,-2.85714 1.07184,-0.53592 15.44179,0 17.14285,0 13.33334,0 26.66667,0 40,0 0.69294,0 8.47955,-0.0919 8.57143,0 3.80953,3.80952 -4.7619,2.85714 2.85715,2.85714 5.71428,0 11.42857,0 17.14285,0 0.95238,0 1.90476,0 2.85715,0 0.95238,0 3.38542,-0.79242 2.85714,0 -2.24133,3.36199 -5.71429,5.71429 -8.57143,8.57143"
       id="path4201"
       inkscape:connector-curvature="0" />
    <path
       style="fill:none;stroke:#000000;stroke-width:1px;stroke-linecap:butt;stroke-linejoin:miter;stroke-opacity:1"
       d="m 80,652.36218 c 4.761905,0 9.52381,0 14.285714,0 2.423978,0 15.247246,-0.4739 17.142856,0 2.06601,0.5165 3.69398,2.18371 5.71429,2.85715 1.85119,0.61706 11.94657,0 14.28571,0 11.42857,0 22.85714,0 34.28572,0 4.7619,0 9.52381,0 14.28571,0 1.90476,0 3.80952,0 5.71429,0 0.95238,0 2.0053,0.42591 2.85714,0 1.20468,-0.60234 1.57939,-2.43123 2.85714,-2.85715 1.80702,-0.60234 3.80953,0 5.71429,0 4.7619,0 9.52381,0 14.28571,0 1.90476,0 3.8664,0.46198 5.71429,0 2.066,-0.5165 3.64828,-2.34064 5.71428,-2.85714 4.21127,-1.05282 12.54451,0.76639 17.14286,0 3.87334,-0.64556 7.54127,-2.30181 11.42857,-2.85714 4.03004,-0.57572 15.84942,0 20,0 0.95238,0 1.9332,0.23098 2.85714,0 2.92178,-0.73045 5.64966,-2.1267 8.57143,-2.85715 0.92395,-0.23098 1.90476,0 2.85715,0 3.80952,0 7.61904,0 11.42857,0 8.57143,0 17.14285,0 25.71428,0 13.33334,0 26.66667,0 40,0 2.917,0 18.61192,-0.46269 20,0 1.27776,0.42592 1.57939,2.43123 2.85715,2.85715 4.28571,1.42857 10,-1.42857 14.28571,0 1.27775,0.42591 1.65247,2.2548 2.85714,2.85714 1.70367,0.85184 4.36742,-1.34687 5.71429,0 0.67343,0.67343 -0.67344,2.18371 0,2.85714 5.91153,5.91153 -0.23109,-9.0336 5.71428,2.85715 4.20402,8.40802 -6.6188,-3.76167 2.85715,5.71428 1.90476,1.90476 3.47296,4.22007 5.71428,5.71429 4.43365,2.95576 1.85896,-4.85352 5.71429,2.85714 0.42592,0.85184 -0.52829,2.06471 0,2.85714 1.88197,2.82296 11.09982,11.09983 14.28571,14.28572 0.95238,0.95238 2.25481,1.65246 2.85715,2.85714 0.42591,0.85184 -0.42592,2.00531 0,2.85714 0.24508,0.49017 8.21649,8.45312 8.57142,8.57143 2.71053,0.90351 5.71429,0 8.57143,0 4.76191,0 9.52381,0 14.28572,0 7.61904,0 15.23809,0 22.85714,0 1.90476,0 3.84651,0.37356 5.71429,0 2.9532,-0.59064 5.60071,-2.36202 8.57142,-2.85714 5.63654,-0.93942 11.53954,1.12066 17.14286,0 2.08823,-0.41765 3.62605,-2.4395 5.71429,-2.85714 2.80166,-0.56034 5.76977,0.56033 8.57143,0 2.08823,-0.41765 3.73701,-2.06624 5.71428,-2.85715 2.79629,-1.11851 5.64966,-2.1267 8.57143,-2.85714 2.29055,-0.57264 9.96422,0.73217 11.42857,0 1.20468,-0.60234 1.57939,-2.43123 2.85714,-2.85714 1.80702,-0.60234 3.90727,0.60234 5.71429,0 1.27775,-0.42592 1.65247,-2.25481 2.85714,-2.85715 0.85184,-0.42591 2.00531,0.42592 2.85715,0 1.20467,-0.60233 1.57939,-2.43122 2.85714,-2.85714 2.57143,-0.85714 6,0.85714 8.57143,0 2.0203,-0.67343 3.69398,-2.18371 5.71428,-2.85714 0.90351,-0.30117 2.18371,0.67343 2.85715,0 0.67343,-0.67344 -0.85184,-2.43123 0,-2.85714 1.70367,-0.85184 3.90727,0.60233 5.71428,0 2.55551,-0.85184 3.30493,-4.50961 5.71429,-5.71429 1.13283,-0.56642 7.98732,0.5841 8.57143,0 5.91153,-5.91153 -9.03361,0.23109 2.85714,-5.71429 7.037,-3.5185 -2.57924,8.29353 8.57143,-2.85714 0.67343,-0.67343 -0.67344,-2.18371 0,-2.85714 0.67343,-0.67344 2.1837,0.67343 2.85714,0 0.67344,-0.67344 -0.67344,-2.18371 0,-2.85714 0.67344,-0.67344 2.18371,0.67343 2.85714,0 0.67344,-0.67344 -0.42591,-2.00531 0,-2.85715 1.41137,-2.82272 4.30292,-2.89156 5.71429,-5.71428 0.85183,-1.70367 -1.34687,-4.36742 0,-5.71429 0.67343,-0.67343 2.18371,0.67344 2.85714,0 0.67344,-0.67343 -0.42592,-2.00531 0,-2.85714 0.60234,-1.20468 2.25481,-1.65247 2.85714,-2.85714 0.42592,-0.85184 -0.67343,-2.18371 0,-2.85715 0.67344,-0.67343 2.18371,0.67344 2.85715,0 0.67343,-0.67343 -0.67344,-2.18371 0,-2.85714 0.67343,-0.67344 2.1837,0.67343 2.85714,0 0.67344,-0.67344 -0.67344,-2.18371 0,-2.85714 0.67344,-0.67344 2.85714,-0.95238 2.85714,0 0,0.95238 -3.80952,0 -2.85714,0 2.85714,0 5.71429,0 8.57143,0 0.95238,0 1.90476,0 2.85714,0 0.95238,0 2.36715,0.81666 2.85714,0 2.63871,-4.39785 3.80953,-9.52381 5.71429,-14.28572"
       id="path4203"
       inkscape:connector-curvature="0" />
    <path
       style="fill:none;stroke:#000000;stroke-width:1px;stroke-linecap:butt;stroke-linejoin:miter;stroke-opacity:1"
       d="m 80,452.36218 c 4.761905,0.95238 9.467005,2.25481 14.285714,2.85715 5.263534,0.65794 14.301296,0 19.999996,0 15.2381,0 30.47619,0 45.71429,0 1.59824,0 25.23073,0.55678 28.57143,0 5.94143,-0.99024 11.23644,-4.53301 17.14286,-5.71429 3.09408,-0.61882 16.94578,0 20,0 0.95238,0 1.95363,0.30117 2.85714,0 2.0203,-0.67344 3.64828,-2.34064 5.71428,-2.85714 1.84789,-0.46198 3.80953,0 5.71429,0 1.90476,0 3.80952,0 5.71429,0 2.85714,0 5.79959,0.69296 8.57142,0 1.30666,-0.32667 1.90477,-1.90477 2.85715,-2.85715 2.85714,-0.95238 5.64965,-2.1267 8.57143,-2.85714 0.92394,-0.23099 1.90476,0 2.85714,0 1.90476,0 3.80952,0 5.71428,0 3.80953,0 7.61905,0 11.42858,0 1.20189,0 16.29292,-0.42496 17.14285,0 9.47595,9.47595 -2.69374,-1.34687 5.71429,2.85714 2.40935,1.20468 3.30493,4.50961 5.71428,5.71429 2.28572,1.14286 6.28572,-1.14286 8.57143,0 0.85184,0.42592 -0.67343,2.18371 0,2.85714 0.67344,0.67344 1.95364,-0.30117 2.85715,0 2.0203,0.67344 3.94236,1.67586 5.71428,2.85715 2.24133,1.49421 3.47296,4.22006 5.71429,5.71428 1.77192,1.18128 3.94236,1.67586 5.71428,2.85714 2.24133,1.49422 3.30493,4.50961 5.71429,5.71429 0.85183,0.42592 1.95363,-0.30117 2.85714,0 20.69548,6.89849 -4.50459,-0.82373 8.57143,5.71429 0.85184,0.42591 2.00531,-0.42592 2.85714,0 1.20468,0.60233 1.65247,2.2548 2.85715,2.85714 1.70367,0.85183 4.01061,-0.85184 5.71428,0 1.20468,0.60234 1.65247,2.2548 2.85714,2.85714 1.03324,0.51662 12.29846,0 14.28572,0 9.52381,0 19.04762,0 28.57143,0 16.19047,0 32.38095,0 48.57143,0 4.7619,0 9.52381,0 14.28571,0 1.90476,0 3.80952,0 5.71429,0 0.95238,0 1.95363,0.30117 2.85714,0 2.0203,-0.67343 3.64828,-2.34064 5.71428,-2.85714 2.77184,-0.69296 5.86091,0.90351 8.57143,0 4.04061,-1.34687 7.38796,-4.36742 11.42857,-5.71429 2.71053,-0.90351 5.86091,0.90351 8.57143,0 1.27776,-0.42592 1.65247,-2.2548 2.85715,-2.85714 1.52238,-0.76119 4.19189,0.76119 5.71428,0 11.89075,-5.94537 -3.05439,0.19724 2.85714,-5.71429 0.67344,-0.67343 2.00531,0.42592 2.85715,0 1.20467,-0.60233 1.73648,-2.11003 2.85714,-2.85714 1.77192,-1.18128 4.20844,-1.3513 5.71429,-2.85714 0.67343,-0.67344 -0.42592,-2.00531 0,-2.85714 3.15865,-6.3173 1.77326,-0.88664 5.71428,-2.85715 2.81151,-1.40575 8.61706,-10.02281 11.42857,-11.42857 0.85184,-0.42592 2.00531,0.42592 2.85715,0 2.40935,-1.20468 3.15878,-4.86245 5.71428,-5.71428 1.80702,-0.60234 3.90727,0.60233 5.71429,0 2.5555,-0.85184 3.30493,-4.50961 5.71428,-5.71429 0.85184,-0.42592 1.95364,0.30117 2.85715,0 10.35797,-3.45266 2.03341,-1.35561 8.57142,-5.71429 1.90477,-0.95238 3.80953,-1.90476 5.71429,-2.85714 0.95238,0 2.00531,0.42592 2.85714,0 1.20468,-0.60234 1.65247,-2.2548 2.85715,-2.85714 0.86952,-0.43476 7.28469,0 8.57142,0 1.90486,0 3.80944,0 5.71429,0 0.95238,0 2.85714,-0.95238 2.85714,0 0,0.95238 -3.80952,0 -2.85714,0 3.80952,0 7.61905,0 11.42857,0 0.76016,0 8.33552,0.47182 8.57143,0 0.85184,-1.70367 0,-3.80953 0,-5.71429"
       id="path4205"
       inkscape:connector-curvature="0" />
    <path
       style="fill:none;stroke:#000000;stroke-width:1px;stroke-linecap:butt;stroke-linejoin:miter;stroke-opacity:1"
       d="m 80,212.36218 c 2.857143,0.95238 5.618221,2.2665 8.571429,2.85715 1.867772,0.37355 3.809523,0 5.714285,0 6.666666,0 13.333336,0 19.999996,0 1.90477,0 3.80953,0 5.71429,0 1.90476,0 3.8664,-0.46198 5.71429,0 12.31932,3.07983 -0.89076,2.63445 11.42857,5.71428 1.84789,0.46197 3.86639,-0.46197 5.71428,0 2.06601,0.5165 3.61368,2.50704 5.71429,2.85714 3.75769,0.62629 7.61905,0 11.42857,0 0.95238,0 1.9332,-0.23098 2.85714,0 5.84355,1.46089 11.23644,4.53301 17.14286,5.71429 1.86777,0.37355 3.8664,-0.46197 5.71429,0 2.066,0.5165 3.69398,2.18371 5.71428,2.85714 3.72526,1.24176 7.78266,1.39878 11.42857,2.85715 1.25054,0.50021 1.55049,2.53047 2.85715,2.85714 2.77183,0.69296 5.79959,-0.69296 8.57142,0 1.30666,0.32666 1.65247,2.2548 2.85715,2.85714 0.85183,0.42592 1.95363,-0.30117 2.85714,0 20.69548,6.89849 -4.50459,-0.82372 8.57143,5.71429 2.02262,8.7116 7.91636,1.10104 11.42857,2.85714 2.40935,1.20468 3.47296,4.22007 5.71429,5.71429 1.77192,1.18128 3.73701,2.06623 5.71428,2.85714 2.79629,1.11851 6.16208,1.05013 8.57143,2.85714 1.70367,1.27775 1.3513,4.20844 2.85714,5.71429 2.42811,2.4281 5.71429,3.80952 8.57143,5.71428 2.85714,1.90476 5.62692,3.94758 8.57143,5.71429 1.82611,1.09566 3.94236,1.67586 5.71429,2.85714 1.12066,0.74711 1.65246,2.25481 2.85714,2.85714 2.69374,1.34687 5.87769,1.51028 8.57143,2.85715 1.20467,0.60234 1.90476,1.90476 2.85714,2.85714 3.26901,3.26901 3.38221,3.98454 8.57143,5.71429 0.90351,0.30116 2.00531,-0.42592 2.85714,0 1.20468,0.60233 1.73648,2.11003 2.85714,2.85714 1.77193,1.18128 3.94237,1.67586 5.71429,2.85714 6.53801,4.35867 -1.78654,2.26163 8.57143,5.71429 2.71052,0.9035 5.8609,-0.90351 8.57143,0 2.5555,0.85183 3.30493,4.50961 5.71428,5.71428 0.85184,0.42592 1.95364,-0.30117 2.85715,0 2.0203,0.67344 3.69398,2.18371 5.71428,2.85715 1.80702,0.60233 4.01062,-0.85184 5.71429,0 1.20467,0.60233 1.65246,2.2548 2.85714,2.85714 0.85184,0.42592 1.90476,0 2.85714,0 1.90476,0 3.80953,0 5.71429,0 4.7619,0 9.52381,0 14.28571,0 17.14286,0 34.28572,0 51.42857,0 11.42858,0 22.85715,0 34.28572,0 2.87729,0 15.56281,0.52668 17.14286,0 1.27775,-0.42592 1.65246,-2.25481 2.85714,-2.85714 0.85183,-0.42592 1.90476,0 2.85714,0 0.95238,-0.95239 1.73648,-2.11004 2.85714,-2.85715 -0.47447,-5.33809 6.73335,-1.9381 8.57143,-2.85714 1.20468,-0.60234 1.73648,-2.11003 2.85715,-2.85714 10.37844,-6.91897 2.02047,0.83667 8.57142,-5.71429 0.95239,-0.95238 1.90477,-1.90476 2.85715,-2.85714 0.95238,-0.95238 1.65246,-2.25481 2.85714,-2.85714 0.85184,-0.42592 2.00531,0.42591 2.85714,0 1.20468,-0.60234 1.73648,-2.11004 2.85715,-2.85715 1.77192,-1.18128 3.69398,-2.18371 5.71428,-2.85714 0.90351,-0.30117 2.18371,0.67343 2.85714,0 0.67344,-0.67344 -0.67343,-2.18371 0,-2.85714 1.34687,-1.34687 4.01062,0.85183 5.71429,0 2.40935,-1.20468 3.30493,-4.50961 5.71429,-5.71429 0.85183,-0.42592 2.0053,0.42592 2.85714,0 1.20468,-0.60234 1.65246,-2.2548 2.85714,-2.85714 0.85184,-0.42592 2.00531,0.42592 2.85714,0 2.40936,-1.20468 3.30494,-4.50961 5.71429,-5.71429 0.85184,-0.42592 2.00531,0.42592 2.85714,0 1.20468,-0.60234 1.65247,-2.2548 2.85715,-2.85714 1.13283,-0.56642 7.98732,0.5841 8.57142,0 0.67344,-0.67344 -0.67343,-2.18371 0,-2.85714 0.11498,-0.11498 10.37933,0 11.42858,0 0.69293,0 8.47954,0.0919 8.57142,0 3.80953,-3.80953 -4.7619,-2.85715 2.85715,-2.85715 0.69293,0 8.47954,-0.0919 8.57143,0 0.67343,0.67344 0.42591,3.70898 0,2.85715 -2.29364,-4.58728 -3.80953,-9.52381 -5.71429,-14.28572"
       id="path4207"
       inkscape:connector-curvature="0" />
    <text
       xml:space="preserve"
       style="font-size:40px;font-style:normal;font-weight:normal;line-height:125%;letter-spacing:0px;word-spacing:0px;fill:#000000;fill-opacity:1;stroke:none;font-family:Sans"
       x="74.285713"
       y="146.6479"
       id="text4209"
       sodipodi:linespacing="125%"><tspan
         sodipodi:role="line"
         id="tspan4211"
         x="74.285713"
         y="146.6479">$E_{31}(t), E_{32}(t)$</tspan></text>
    <text
       xml:space="preserve"
       style="font-size:40px;font-style:normal;font-weight:normal;line-height:125%;letter-spacing:0px;word-spacing:0px;fill:#000000;fill-opacity:1;stroke:none;font-family:Sans"
       x="85.714287"
       y="403.79074"
       id="text4213"
       sodipodi:linespacing="125%"><tspan
         sodipodi:role="line"
         id="tspan4215"
         x="85.714287"
         y="403.79074">$E_{21}(t)$</tspan></text>
    <text
       xml:space="preserve"
       style="font-size:40px;font-style:normal;font-weight:normal;line-height:125%;letter-spacing:0px;word-spacing:0px;fill:#000000;fill-opacity:1;stroke:none;font-family:Sans"
       x="40"
       y="572.36218"
       id="text4217"
       sodipodi:linespacing="125%"><tspan
         sodipodi:role="line"
         id="tspan4219"
         x="40"
         y="572.36218">$E_{11}(t), E_{12}(t), E_{13}(t)$</tspan></text>
    <text
       xml:space="preserve"
       style="font-size:40px;font-style:normal;font-weight:normal;line-height:125%;letter-spacing:0px;word-spacing:0px;fill:#000000;fill-opacity:1;stroke:none;font-family:Sans"
       x="82.85714"
       y="735.21936"
       id="text4221"
       sodipodi:linespacing="125%"><tspan
         sodipodi:role="line"
         id="tspan4223"
         x="82.85714"
         y="735.21936">$E_0(t)$</tspan></text>
    <text
       xml:space="preserve"
       style="font-size:40px;font-style:normal;font-weight:normal;line-height:125%;letter-spacing:0px;word-spacing:0px;fill:#000000;fill-opacity:1;stroke:none;font-family:Sans"
       x="640"
       y="932.36218"
       id="text4225"
       sodipodi:linespacing="125%"><tspan
         sodipodi:role="line"
         id="tspan4227"
         x="640"
         y="932.36218">$t$</tspan></text>
    <path
       style="fill:none;stroke:#000000;stroke-width:1px;stroke-linecap:butt;stroke-linejoin:miter;stroke-opacity:1"
       d="m 320,292.36218 c 9.52381,4.76191 18.8779,9.87957 28.57143,14.28572 0.86701,0.39409 1.90476,0 2.85714,0 0.95238,0 1.90476,0 2.85714,0 2.85715,0 5.71429,0 8.57143,0 10.47619,0 20.95238,0 31.42857,0 4.76191,0 9.52381,0 14.28572,0 0.95238,0 1.90476,0 2.85714,0 0.95238,0 2.00531,0.42591 2.85714,0 1.20468,-0.60234 1.65247,-2.25481 2.85715,-2.85715 0.85183,-0.42591 2.1837,0.67344 2.85714,0 5.91153,-5.91153 -9.0336,0.23109 2.85714,-5.71428 0.85184,-0.42592 1.90476,0 2.85715,0 0.95238,-0.95238 1.65246,-2.25481 2.85714,-2.85714 1.70367,-0.85184 4.01061,0.85183 5.71428,0 2.18254,-1.09127 6.63672,-7.92653 8.57143,-8.57143 1.80702,-0.60234 3.80953,0 5.71429,0 0.95238,0 2.43122,0.85183 2.85714,0 0.85184,-1.70367 -1.05657,-4.12943 0,-5.71429 0.17736,-8.04496 6.44184,-0.72755 8.57143,-2.85714 0.67344,-0.67344 0,-1.90476 0,-2.85714 1.90476,0 3.90727,0.60233 5.71429,0 2.5555,-0.85184 3.30493,-4.50961 5.71428,-5.71429 0.85184,-0.42592 2.18371,0.67343 2.85714,0 1.50585,-1.50585 1.3513,-4.20844 2.85715,-5.71429 1.34687,-1.34687 4.36741,1.34687 5.71428,0 0.67344,-0.67343 0,-1.90476 0,-2.85714 1.90476,0 4.01062,0.85184 5.71429,0 0.85183,-0.42592 -0.67344,-2.18371 0,-2.85714 0.67343,-0.67344 2.00531,0.42592 2.85714,0 2.79118,-1.39559 2.92311,-4.3187 5.71429,-5.71429 1.70367,-0.85183 4.36741,1.34687 5.71428,0 0.67344,-0.67343 -0.67343,-2.18371 0,-2.85714 0.67344,-0.67344 2.00531,0.42592 2.85715,0 1.20467,-0.60234 1.65246,-2.2548 2.85714,-2.85714 0.85183,-0.42592 1.90476,0 2.85714,0 0.95238,-0.95238 1.65247,-2.25481 2.85714,-2.85715 1.52388,-0.76194 4.19041,0.76194 5.71429,0 2.40935,-1.20467 3.30493,-4.5096 5.71429,-5.71428 0.85183,-0.42592 2.1837,0.67343 2.85714,0 0.67343,-0.67344 -0.67344,-2.18371 0,-2.85714 1.34687,-1.34687 4.36741,1.34687 5.71428,0 0.67344,-0.67344 -0.67343,-2.18371 0,-2.85715 0.67344,-0.67343 1.90477,0 2.85715,0 0.95238,0 2.85714,-0.95238 2.85714,0 0,0.95238 -2.85714,0.95238 -2.85714,0 0,-1.34687 1.84352,-1.97022 2.85714,-2.85714 6.60801,-5.78201 13.33333,-11.42857 20,-17.14286"
       id="path3008"
       inkscape:connector-curvature="0" />
    <path
       style="fill:none;stroke:#000000;stroke-width:1px;stroke-linecap:butt;stroke-linejoin:miter;stroke-opacity:1"
       d="m 400,652.36218 c 7.29914,-10.94871 2.28043,-8.57143 14.28571,-8.57143 18.09524,0 36.19048,0 54.28572,0 5.71428,0 11.42857,0 17.14286,0 1.87745,0 6.95943,0.53734 8.57142,0 2.02031,-0.67343 3.69398,-2.1837 5.71429,-2.85714 0.90351,-0.30117 2.00531,0.42592 2.85714,0 1.20468,-0.60234 1.65247,-2.2548 2.85715,-2.85714 2.69374,-1.34687 5.87768,-1.51027 8.57142,-2.85714 8.71304,-4.35652 -5.22555,-2.26504 8.57143,-5.71429 6.03529,-1.50882 6.03268,2.53875 11.42857,-2.85714 1.50585,-1.50585 1.15348,-4.43654 2.85715,-5.71429 2.40935,-1.80701 5.77514,-1.73863 8.57143,-2.85714 1.97727,-0.79091 3.94236,-1.67586 5.71428,-2.85714 3.2967,-2.19781 5.27473,-6.37363 8.57143,-8.57143 1.77192,-1.18129 3.94236,-1.67586 5.71429,-2.85715 1.12066,-0.74711 1.90476,-1.90476 2.85714,-2.85714 2.85714,-2.85714 5.71428,-5.71428 8.57143,-8.57143 1.68041,-1.68041 10.10549,-10.76703 11.42857,-11.42857 0.85183,-0.42592 2.18371,0.67344 2.85714,0 1.34687,-1.34687 -0.85183,-4.01061 0,-5.71428 0.60234,-1.20468 2.25481,-1.65247 2.85714,-2.85715 0.42592,-0.85183 -0.67343,-2.18371 0,-2.85714 2.10201,-2.10201 5.1564,2.29925 5.71429,2.85714"
       id="path3010"
       inkscape:connector-curvature="0" />
    <path
       style="fill:none;stroke:#000000;stroke-width:1px;stroke-linecap:butt;stroke-linejoin:miter;stroke-opacity:1"
       d="m 560,692.36218 c 0.95238,0.95238 3.80952,1.90476 2.85714,2.85715 -0.95238,0.95238 -4.1638,-3.18381 -2.85714,-2.85715 4.9756,1.2439 9.42018,4.09244 14.28571,5.71429 0.90351,0.30117 1.90477,0 2.85715,0 1.90476,0.95238 3.69398,2.18371 5.71428,2.85714 0.90351,0.30117 2.00531,-0.42592 2.85715,0 1.20467,0.60234 1.57939,2.43123 2.85714,2.85714 1.80701,0.60234 3.80952,0 5.71428,0 0.95239,0 2.00531,-0.42591 2.85715,0 2.40935,1.20468 3.47296,4.22007 5.71428,5.71429 1.90476,0.95238 3.80953,1.90476 5.71429,2.85714 0.95238,0 2.00531,-0.42592 2.85714,0 1.20468,0.60234 1.65247,2.25481 2.85714,2.85715 1.13284,0.56641 7.98733,-0.58411 8.57143,0 0.67344,0.67343 -0.67343,2.1837 0,2.85714 1.34687,1.34687 4.01062,-0.85184 5.71429,0 1.20468,0.60234 1.65246,2.2548 2.85714,2.85714 0.85184,0.42592 2.18371,-0.67343 2.85714,0 0.67344,0.67344 -0.85183,2.43123 0,2.85714 1.70368,0.85184 3.80953,0 5.71429,0 0.95238,0 2.18371,-0.67343 2.85714,0 0.67344,0.67344 -0.67343,2.18371 0,2.85715 0.67344,0.67343 2.00531,-0.42592 2.85715,0 1.20467,0.60234 1.65246,2.2548 2.85714,2.85714 0.85183,0.42592 2.18371,-0.67344 2.85714,0 0.67344,0.67343 0,1.90476 0,2.85714 0,0.95238 0.95238,2.85715 0,2.85715 -3.92677,0 -7.61905,-1.90477 -11.42857,-2.85715"
       id="path3012"
       inkscape:connector-curvature="0" />
  </g>
</svg>
