<?xml version="1.0" encoding="UTF-8" standalone="no"?>
<!-- Created with Inkscape (http://www.inkscape.org/) -->

<svg
   xmlns:dc="http://purl.org/dc/elements/1.1/"
   xmlns:cc="http://creativecommons.org/ns#"
   xmlns:rdf="http://www.w3.org/1999/02/22-rdf-syntax-ns#"
   xmlns:svg="http://www.w3.org/2000/svg"
   xmlns="http://www.w3.org/2000/svg"
   xmlns:sodipodi="http://sodipodi.sourceforge.net/DTD/sodipodi-0.dtd"
   xmlns:inkscape="http://www.inkscape.org/namespaces/inkscape"
   width="744.09448819"
   height="1052.3622047"
   id="svg2"
   version="1.1"
   inkscape:version="0.48.2 r9819"
   sodipodi:docname="New document 1">
  <defs
     id="defs4">
    <marker
       inkscape:stockid="Arrow1Lend"
       orient="auto"
       refY="0.0"
       refX="0.0"
       id="Arrow1Lend"
       style="overflow:visible;">
      <path
         id="path3949"
         d="M 0.0,0.0 L 5.0,-5.0 L -12.5,0.0 L 5.0,5.0 L 0.0,0.0 z "
         style="fill-rule:evenodd;stroke:#000000;stroke-width:1.0pt;marker-start:none;"
         transform="scale(0.8) rotate(180) translate(12.5,0)" />
    </marker>
    <marker
       inkscape:stockid="Arrow1Lend"
       orient="auto"
       refY="0"
       refX="0"
       id="Arrow1Lend-1"
       style="overflow:visible">
      <path
         inkscape:connector-curvature="0"
         id="path3949-7"
         d="M 0,0 5,-5 -12.5,0 5,5 0,0 z"
         style="fill-rule:evenodd;stroke:#000000;stroke-width:1pt;marker-start:none"
         transform="matrix(-0.8,0,0,-0.8,-10,0)" />
    </marker>
    <marker
       inkscape:stockid="Arrow1Lend"
       orient="auto"
       refY="0"
       refX="0"
       id="Arrow1Lend-0"
       style="overflow:visible">
      <path
         inkscape:connector-curvature="0"
         id="path3949-9"
         d="M 0,0 5,-5 -12.5,0 5,5 0,0 z"
         style="fill-rule:evenodd;stroke:#000000;stroke-width:1pt;marker-start:none"
         transform="matrix(-0.8,0,0,-0.8,-10,0)" />
    </marker>
  </defs>
  <sodipodi:namedview
     id="base"
     pagecolor="#ffffff"
     bordercolor="#666666"
     borderopacity="1.0"
     inkscape:pageopacity="0.0"
     inkscape:pageshadow="2"
     inkscape:zoom="0.35"
     inkscape:cx="-70.714286"
     inkscape:cy="520"
     inkscape:document-units="px"
     inkscape:current-layer="layer1"
     showgrid="false"
     inkscape:window-width="1600"
     inkscape:window-height="838"
     inkscape:window-x="-8"
     inkscape:window-y="-8"
     inkscape:window-maximized="1">
    <inkscape:grid
       type="xygrid"
       id="grid2985" />
  </sodipodi:namedview>
  <metadata
     id="metadata7">
    <rdf:RDF>
      <cc:Work
         rdf:about="">
        <dc:format>image/svg+xml</dc:format>
        <dc:type
           rdf:resource="http://purl.org/dc/dcmitype/StillImage" />
        <dc:title></dc:title>
      </cc:Work>
    </rdf:RDF>
  </metadata>
  <g
     inkscape:label="Layer 1"
     inkscape:groupmode="layer"
     id="layer1">
    <path
       style="fill:none;stroke:#000000;stroke-width:1px;stroke-linecap:butt;stroke-linejoin:miter;stroke-opacity:1"
       d="m 40,532.36218 240,0 0,360 200,0 0,-360 200,0"
       id="path2987"
       inkscape:connector-curvature="0" />
    <path
       style="fill:none;stroke:#000000;stroke-width:1px;stroke-linecap:butt;stroke-linejoin:miter;stroke-opacity:1"
       d="m 280,772.36218 200,0"
       id="path2989"
       inkscape:connector-curvature="0" />
    <path
       style="fill:none;stroke:#000000;stroke-width:1px;stroke-linecap:butt;stroke-linejoin:miter;stroke-opacity:1"
       d="m 280,652.36218 200,0"
       id="path2991"
       inkscape:connector-curvature="0" />
    <path
       style="fill:none;stroke:#000000;stroke-width:2.7;stroke-linecap:butt;stroke-linejoin:miter;stroke-opacity:1;marker-mid:none;marker-end:url(#Arrow1Lend);stroke-miterlimit:4;stroke-dasharray:none"
       d="m 40,412.36218 400,0"
       id="path2993"
       inkscape:connector-curvature="0" />
    <path
       inkscape:connector-curvature="0"
       id="path4387"
       d="m 40,412.36218 400,0"
       style="fill:none;stroke:#000000;stroke-width:2.7;stroke-linecap:butt;stroke-linejoin:miter;stroke-opacity:1;marker-mid:none;marker-end:url(#Arrow1Lend);stroke-miterlimit:4;stroke-dasharray:none" />
    <path
       inkscape:connector-curvature="0"
       id="path4387-4"
       d="m 40,292.36218 400,0"
       style="fill:none;stroke:#000000;stroke-width:2.70000005;stroke-linecap:butt;stroke-linejoin:miter;stroke-miterlimit:4;stroke-opacity:1;stroke-dasharray:none;marker-mid:none;marker-end:url(#Arrow1Lend)" />
    <path
       inkscape:connector-curvature="0"
       id="path4387-48"
       d="m 40,172.36218 400,0"
       style="fill:none;stroke:#000000;stroke-width:2.70000005;stroke-linecap:butt;stroke-linejoin:miter;stroke-miterlimit:4;stroke-opacity:1;stroke-dasharray:none;marker-mid:none;marker-end:url(#Arrow1Lend)" />
    <text
       xml:space="preserve"
       style="font-size:40px;font-style:normal;font-weight:normal;line-height:125%;letter-spacing:0px;word-spacing:0px;fill:#000000;fill-opacity:1;stroke:none;font-family:Sans"
       x="342.85715"
       y="89.505043"
       id="text4424"
       sodipodi:linespacing="125%"><tspan
         sodipodi:role="line"
         id="tspan4426"
         x="342.85715"
         y="89.505043">continuum</tspan></text>
    <path
       style="fill:none;stroke:#000000;stroke-width:1px;stroke-linecap:butt;stroke-linejoin:miter;stroke-opacity:1"
       d="m 280,772.36218 c 3.80952,-2.85714 8.57143,-12.38095 11.42857,-8.57143 2.85714,3.80953 -14.79575,11.93861 -11.42857,8.57143 4.31209,-4.31209 9.60094,-7.52459 14.28571,-11.42857 2.06939,-1.72449 3.30494,-4.50961 5.71429,-5.71428 0.85184,-0.42592 2.18371,0.67343 2.85714,0 0.67344,-0.67344 -0.85183,-2.43123 0,-2.85715 1.70367,-0.85183 4.01062,0.85184 5.71429,0 0.85183,-0.42592 -0.67344,-2.18371 0,-2.85714 5.91153,-5.91153 -0.23109,9.0336 5.71428,-2.85714 0.85184,-1.70367 -1.34687,-4.36742 0,-5.71429 0.67344,-0.67343 2.18371,0.67344 2.85715,0 0.67343,-0.67343 -0.67344,-2.18371 0,-2.85714 0.67343,-0.67344 2.1837,0.67343 2.85714,0 0.67344,-0.67344 -0.42592,-2.00531 0,-2.85714 0.60234,-1.20468 2.2548,-1.65247 2.85714,-2.85715 0.42592,-0.85183 -0.67343,-2.18371 0,-2.85714 0.67344,-0.67344 1.90476,0 2.85715,0 0.95238,0 2.85714,-0.95238 2.85714,0 0,0.95238 -2.85714,0.95238 -2.85714,0 0,-1.34687 1.65246,-2.2548 2.85714,-2.85714 1.13283,-0.56642 7.98732,0.5841 8.57143,0 0.67343,-0.67344 -0.85184,-2.43123 0,-2.85715 2.5555,-1.27775 5.71428,0 8.57143,0 1.28673,0 7.7019,0.43477 8.57142,0 1.20468,-0.60233 1.65247,-2.2548 2.85715,-2.85714 0.86952,-0.43476 7.28469,0 8.57143,0 5.71428,0 11.42857,0 17.14285,0 7.61905,0 15.2381,0 22.85715,0 1.28673,0 7.7019,-0.43476 8.57142,0 2.28897,1.14449 3.42532,4.5698 5.71429,5.71429 0.85184,0.42591 2.00531,-0.42592 2.85714,0 1.20468,0.60234 1.65247,2.2548 2.85715,2.85714 1.13283,0.56642 7.98732,-0.5841 8.57142,0 5.91153,5.91153 -9.0336,-0.23109 2.85715,5.71429 1.70367,0.85183 4.36741,-1.34687 5.71428,0 0.67344,0.67343 -0.67343,2.1837 0,2.85714 1.34687,1.34687 4.01062,-0.85184 5.71429,0 1.20468,0.60234 1.65246,2.2548 2.85714,2.85714 0.85184,0.42592 2.18371,-0.67343 2.85714,0 0.67344,0.67344 -0.67343,2.18371 0,2.85714 0.67344,0.67344 2.00531,-0.42591 2.85715,0 0.54691,0.27346 11.15511,10.88166 11.42857,11.42858 0.42592,0.85183 -0.67344,2.1837 0,2.85714 1.34687,1.34687 4.36741,-1.34687 5.71428,0 0.67344,0.67343 -0.67343,2.18371 0,2.85714 0.67344,0.67344 2.18371,-0.67343 2.85715,0 0.67343,0.67344 -0.42592,2.00531 0,2.85714 0.60234,1.20468 2.2548,1.65247 2.85714,2.85715 0.42592,0.85183 0.95238,2.85714 0,2.85714 -0.95238,0 0,-3.80952 0,-2.85714 0,1.90476 0,3.80952 0,5.71428"
       id="path4430"
       inkscape:connector-curvature="0" />
    <path
       style="fill:none;stroke:#000000;stroke-width:1px;stroke-linecap:butt;stroke-linejoin:miter;stroke-opacity:1"
       d="m 280,652.36218 c 0,-4.7619 0,-9.52381 0,-14.28571 0.95238,0 2.18371,0.67343 2.85714,0 1.34687,-1.34687 -1.34687,-4.36742 0,-5.71429 0.67344,-0.67343 2.18371,0.67344 2.85715,0 1.42857,-1.42857 -1.42858,-7.14285 0,-8.57143 0.67343,-0.67343 2.1837,0.67344 2.85714,0 0.67343,-0.67343 -0.42592,-2.0053 0,-2.85714 0.60234,-1.20468 2.2548,-1.65246 2.85714,-2.85714 0.42592,-0.85184 -0.67343,-2.18371 0,-2.85714 0.67344,-0.67344 2.18371,0.67343 2.85714,0 0.67344,-0.67344 -0.67343,-2.18371 0,-2.85715 0.67344,-0.67343 2.18371,0.67344 2.85715,0 0.67343,-0.67343 -0.67344,-2.18371 0,-2.85714 1.34687,-1.34687 4.01061,0.85184 5.71428,0 1.20468,-0.60234 1.65247,-2.2548 2.85715,-2.85714 0.85183,-0.42592 2.0053,0.42591 2.85714,0 1.20468,-0.60234 1.65246,-2.25481 2.85714,-2.85715 0.85184,-0.42591 1.90476,0 2.85714,0 0.95239,-0.95238 1.65247,-2.2548 2.85715,-2.85714 0.85183,-0.42592 2.1837,0.67344 2.85714,0 0.67344,-0.67343 -0.67344,-2.18371 0,-2.85714 0.67344,-0.67344 1.90476,0 2.85714,0 7.61905,0 15.2381,0 22.85715,0 2.85714,0 5.71428,0 8.57142,0 0.95239,0 2.85715,-0.95238 2.85715,0 0,0.95238 -3.80953,0 -2.85715,0 1.90477,0 3.80953,0 5.71429,0 0.95238,0 2.18371,-0.67344 2.85714,0 1.34687,1.34687 -1.34687,4.36741 0,5.71428 5.91153,5.91153 -0.23108,-9.0336 5.71429,2.85715 1.14286,2.28571 -1.14286,6.28571 0,8.57143 0.60234,1.20467 2.2548,1.65246 2.85714,2.85714 0.42592,0.85183 -0.42592,2.00531 0,2.85714 0.60234,1.20468 2.25481,1.65247 2.85714,2.85714 0.42592,0.85184 -0.67343,2.18371 0,2.85715 0.67344,0.67343 2.18371,-0.67344 2.85715,0 1.34687,1.34687 -1.34687,4.36741 0,5.71428 0.67343,0.67344 2.1837,-0.67343 2.85714,0 0.5841,0.58411 -0.56642,7.4386 0,8.57143 0.60234,1.20468 2.2548,1.65247 2.85714,2.85714 0.42592,0.85184 -0.67343,2.18371 0,2.85715 0.67344,0.67343 2.18371,-0.67344 2.85715,0 0.67343,0.67343 -0.42592,2.0053 0,2.85714 0.60233,1.20468 2.2548,1.65247 2.85714,2.85714 0.42592,0.85184 -0.42592,2.00531 0,2.85715 0.60234,1.20467 2.2548,1.65246 2.85714,2.85714 0.56642,1.13283 -0.5841,7.98732 0,8.57143 3.80953,3.80952 2.85714,-4.76191 2.85714,2.85714 0,0.69293 -0.0919,8.47954 0,8.57143 0.67344,0.67343 2.18371,-0.67344 2.85715,0 0.67343,0.67343 -0.42592,2.00531 0,2.85714 5.94537,11.89075 -0.19725,-3.05439 5.71428,2.85714 0.67344,0.67344 -0.67343,2.18371 0,2.85715 1.34687,1.34687 4.01062,-0.85184 5.71429,0 1.20468,0.60234 1.57939,2.43122 2.85714,2.85714 2.06757,0.68919 10.48675,-0.94182 11.42857,0 0.67344,0.67343 -0.67343,2.18371 0,2.85714 1.34687,1.34687 4.36742,-1.34687 5.71429,0 0.67343,0.67344 -0.67344,2.18371 0,2.85715 0.67343,0.67343 2.00531,-0.42592 2.85714,0 1.20468,0.60233 1.65247,2.2548 2.85714,2.85714 1.70368,0.85183 4.36742,-1.34687 5.71429,0 0.67344,0.67343 -0.67344,2.18371 0,2.85714 0.67344,0.67344 1.90476,0 2.85714,0 0.95238,0 1.90476,0 2.85715,0 0.69293,0 8.47954,0.0919 8.57142,0 0.67344,-0.67343 -0.67343,-2.18371 0,-2.85714 0.67344,-0.67344 2.18371,0.67343 2.85715,0 5.91153,-5.91153 -9.0336,0.23108 2.85714,-5.71429 0.85184,-0.42592 2.18371,0.67344 2.85714,0 0.67344,-0.67343 -0.67343,-2.18371 0,-2.85714 0.67344,-0.67344 2.18371,0.67343 2.85715,0 1.34687,-1.34687 -1.34687,-4.36742 0,-5.71429 0.67343,-0.67343 2.1837,0.67344 2.85714,0 0.96256,-0.96256 -0.96256,-4.75172 0,-5.71428 0.67343,-0.67344 2.18371,0.67343 2.85714,0 0.67344,-0.67344 0,-1.90476 0,-2.85714 0,-0.95239 0,-1.90477 0,-2.85715 0,-2.85714 0,-5.71428 0,-8.57143 0,-0.95238 0,-3.80952 0,-2.85714 0,1.90476 0,7.61905 0,5.71429 0,-2.85715 0,-5.71429 0,-8.57143 0,-0.95238 -0.95238,-2.85714 0,-2.85714 0.95238,0 0,3.80952 0,2.85714 0,-1.90476 -1.58486,-4.65772 0,-5.71429 2.37729,-1.58486 5.71429,0 8.57143,0"
       id="path4436"
       inkscape:connector-curvature="0" />
  </g>
</svg>
